<?xml version="1.0" standalone="no"?>
<!DOCTYPE svg PUBLIC "-//W3C//DTD SVG 20010904//EN"
 "http://www.w3.org/TR/2001/REC-SVG-20010904/DTD/svg10.dtd">
<svg version="1.0" xmlns="http://www.w3.org/2000/svg"
 width="479.000000pt" height="479.000000pt" viewBox="0 0 479.000000 479.000000"
 preserveAspectRatio="xMidYMid meet">
<metadata>
Created by potrace 1.11, written by Peter Selinger 2001-2013
</metadata>
<g transform="translate(0.000000,479.000000) scale(0.100000,-0.100000)"
fill="#000000" stroke="none">
<path d="M0 2665 c0 -1882 2 -2125 15 -2125 8 0 15 -4 15 -10 0 -5 -6 -10 -14
-10 -12 0 -15 -42 -15 -260 l-1 -260 49 0 50 0 -10 33 c-20 63 -39 132 -44
154 -3 12 -10 35 -16 50 -15 37 -22 83 -9 63 11 -18 67 -200 84 -272 l6 -28
135 1 c74 0 135 3 135 8 0 4 -13 49 -30 101 -16 52 -37 120 -46 150 -9 30 -34
107 -56 170 -22 63 -42 126 -44 140 l-4 25 11 -25 c27 -60 41 -96 44 -110 5
-19 43 -129 55 -155 4 -11 11 -31 14 -45 16 -77 29 -126 37 -135 5 -5 9 -17 9
-27 0 -10 7 -36 16 -58 l16 -40 90 0 c77 0 89 2 79 14 -9 10 -9 16 -1 21 7 4
14 -2 17 -14 4 -17 13 -21 44 -21 22 0 39 2 39 5 0 3 -8 31 -19 63 -17 54 -65
209 -98 317 -9 28 -21 64 -28 80 -7 17 -16 45 -19 62 -4 18 -12 35 -17 38 -5
4 -9 16 -9 28 0 20 0 20 15 1 8 -10 15 -24 15 -31 0 -6 5 -24 12 -40 23 -58
47 -128 48 -141 0 -8 6 -28 14 -45 7 -18 23 -66 36 -107 12 -41 34 -110 48
-152 l25 -78 143 1 c136 0 142 1 137 20 -3 11 -9 22 -14 25 -5 3 -9 17 -9 32
-1 15 -7 38 -15 52 -8 14 -14 34 -15 45 0 11 -7 33 -15 49 -8 15 -15 35 -15
43 0 8 -6 29 -14 46 -8 18 -24 60 -35 95 -12 34 -25 70 -31 80 -5 9 -18 46
-30 82 -11 36 -25 74 -30 85 -5 11 -21 58 -36 105 -15 47 -29 91 -32 97 -2 7
1 13 7 13 6 0 11 -7 11 -15 0 -8 6 -29 14 -47 7 -18 23 -64 36 -103 13 -38 28
-81 33 -95 6 -14 11 -32 13 -40 3 -13 19 -55 47 -120 29 -68 66 -177 122 -357
l29 -93 42 0 c32 0 44 4 47 18 4 16 5 16 6 0 1 -14 10 -18 40 -18 22 0 42 4
45 9 3 4 -4 25 -14 47 -11 21 -20 48 -20 59 0 12 -7 30 -15 41 -8 10 -15 28
-15 40 0 11 -7 29 -15 40 -8 10 -15 28 -15 39 0 11 -7 33 -15 49 -8 15 -15 35
-15 43 0 8 -6 26 -14 41 -7 15 -16 45 -19 67 l-6 40 20 -39 c10 -22 19 -47 19
-55 0 -9 7 -29 15 -45 8 -15 15 -34 15 -41 0 -8 5 -26 12 -42 6 -15 23 -62 38
-104 14 -43 31 -83 38 -91 6 -8 9 -17 6 -20 -3 -3 2 -22 10 -42 13 -30 20 -36
45 -36 35 0 40 17 19 67 -6 15 -13 37 -15 48 -1 11 -7 29 -12 40 -22 52 -51
132 -51 142 0 6 -18 66 -41 134 -22 68 -45 138 -50 154 l-9 30 19 -24 c10 -13
28 -58 40 -100 12 -42 28 -89 36 -104 8 -16 15 -37 15 -46 0 -15 58 -197 77
-241 4 -8 11 -33 17 -55 10 -37 14 -40 49 -43 30 -3 37 0 37 15 1 17 1 17 14
1 8 -11 26 -18 46 -18 31 0 32 2 27 33 -2 17 -9 46 -15 62 -6 17 -23 77 -38
135 -15 58 -35 120 -45 138 -21 38 -23 42 -10 42 14 0 57 -99 74 -170 56 -237
57 -240 109 -240 33 0 39 3 35 18 -43 155 -73 241 -106 302 -13 25 -30 59 -38
75 -8 17 -18 38 -24 47 -5 10 -9 23 -9 28 0 6 -9 30 -20 52 -11 23 -20 48 -20
56 0 8 -6 28 -14 45 -7 18 -24 61 -36 97 -13 36 -29 79 -36 95 -7 17 -21 57
-32 90 -25 74 -91 228 -100 235 -4 3 -13 16 -20 30 -7 14 -21 39 -32 55 -35
54 -52 87 -46 92 3 3 11 -6 17 -21 7 -14 16 -26 21 -26 4 0 8 -4 8 -9 0 -6 24
-49 53 -98 29 -48 63 -113 76 -143 12 -30 26 -64 31 -75 4 -11 18 -49 30 -85
13 -36 29 -78 35 -95 7 -16 32 -86 55 -155 24 -69 47 -129 51 -135 5 -5 9 -15
9 -22 0 -7 24 -63 54 -125 51 -107 76 -174 107 -280 l13 -47 83 0 c64 0 83 4
83 14 0 8 -4 17 -10 20 -5 3 -10 16 -10 28 0 12 -7 35 -15 51 -8 15 -15 36
-15 45 0 9 -7 29 -15 45 -8 15 -15 34 -15 40 0 6 -9 29 -20 50 -21 43 -74 194
-84 241 l-6 30 16 -29 c9 -15 18 -40 20 -55 3 -14 12 -36 20 -48 8 -12 14 -30
14 -39 0 -15 9 -39 51 -132 10 -23 19 -48 19 -55 0 -6 6 -24 14 -39 8 -15 17
-42 21 -60 4 -18 11 -37 15 -43 4 -5 10 -22 14 -37 5 -24 11 -28 41 -28 34 0
49 20 25 35 -6 3 -10 13 -10 21 0 8 -7 31 -16 52 -10 20 -19 45 -21 56 -2 10
-9 33 -16 50 -18 42 -47 131 -47 144 0 6 -5 23 -12 39 -7 15 -13 33 -13 38 -4
24 -18 71 -25 80 -4 6 -10 23 -13 39 l-5 30 19 -25 c10 -13 19 -32 19 -41 0
-10 6 -35 14 -55 8 -21 31 -92 51 -158 21 -66 43 -129 49 -140 6 -11 11 -27
12 -35 1 -8 11 -40 22 -70 19 -51 23 -55 56 -58 27 -2 36 1 36 12 0 8 -4 17
-9 20 -5 3 -12 26 -15 51 -4 24 -11 47 -17 50 -14 9 -11 37 3 33 7 -3 14 -15
15 -29 1 -13 7 -37 14 -54 7 -16 13 -37 14 -46 4 -30 16 -39 56 -39 43 0 45 3
25 42 -8 14 -17 45 -21 67 -4 23 -11 41 -16 41 -5 0 -9 14 -9 30 0 17 -7 44
-15 60 -9 18 -11 31 -5 35 6 3 12 0 13 -7 2 -7 11 -36 20 -64 10 -29 17 -58
17 -65 0 -8 6 -26 14 -40 7 -14 16 -42 20 -62 7 -35 9 -37 46 -37 43 0 46 4
29 47 -6 15 -13 37 -15 48 -3 19 -19 60 -50 134 -8 18 -13 36 -10 38 8 9 46
-75 77 -171 l30 -94 346 -1 c270 -1 348 1 355 11 6 10 8 10 8 1 0 -9 23 -13
81 -13 73 0 81 2 75 18 -6 16 -5 16 8 0 8 -12 27 -18 50 -18 34 0 37 2 31 23
-4 12 -11 26 -16 32 -14 14 -11 35 4 29 8 -3 18 -22 23 -42 l9 -37 78 -2 c85
-3 92 3 63 60 -12 21 -12 27 -2 27 7 0 17 -19 22 -42 8 -39 12 -43 42 -46 25
-3 32 0 32 15 0 32 -26 92 -50 118 -13 14 -19 25 -13 25 20 0 71 -77 78 -118
6 -37 10 -42 34 -42 15 0 32 5 39 12 9 9 12 9 12 0 0 -16 67 -16 73 1 4 9 6 9
6 0 1 -10 61 -20 61 -10 0 20 -34 155 -41 162 -5 5 -9 16 -9 24 0 13 2 13 14
1 18 -20 43 -112 45 -167 1 -22 4 -23 106 -23 112 0 120 4 90 46 -8 12 -12 24
-9 27 3 3 -2 19 -10 36 -17 33 -21 65 -7 57 4 -3 11 -20 15 -38 3 -17 13 -39
20 -47 8 -9 16 -29 18 -46 l3 -30 483 -3 482 -2 0 2395 0 2395 -515 0 c-447 0
-514 -2 -509 -15 3 -8 14 -17 23 -20 11 -3 29 -34 45 -78 15 -39 33 -83 40
-97 8 -14 17 -42 20 -63 4 -22 12 -50 19 -64 10 -22 12 -23 23 -9 10 14 14 6
28 -46 25 -92 34 -143 41 -240 5 -63 11 -88 20 -88 9 0 15 -25 20 -85 8 -92 1
-151 -18 -158 -9 -3 -12 -50 -12 -178 0 -167 1 -175 23 -197 19 -19 22 -32 22
-102 0 -75 1 -80 21 -80 16 0 19 -4 13 -17 -10 -24 -12 -193 -2 -193 4 0 8
-12 8 -28 0 -15 4 -42 9 -60 8 -25 5 -47 -8 -90 -10 -31 -26 -91 -35 -132 -21
-92 -46 -179 -57 -202 -14 -27 -11 -68 5 -74 7 -3 21 -23 31 -45 10 -21 22
-39 27 -39 4 0 8 -18 8 -40 0 -22 -4 -40 -8 -40 -5 0 -27 -16 -49 -35 -23 -19
-52 -35 -65 -36 -22 0 -22 -1 -3 -9 16 -7 16 -9 4 -9 -34 -2 -35 -10 -43 -292
-2 -102 -8 -197 -11 -211 -4 -14 -1 -45 5 -69 18 -65 14 -517 -5 -589 -8 -30
-17 -72 -20 -93 -3 -21 -10 -35 -15 -32 -6 4 -6 -4 0 -20 21 -54 14 -59 -45
-35 -11 5 -45 16 -75 26 -30 9 -64 21 -75 25 -11 5 -42 13 -70 19 -114 24
-125 32 -246 183 -63 78 -125 158 -138 177 -13 19 -38 51 -56 72 l-33 36 -52
-73 c-52 -73 -170 -185 -196 -185 -8 0 -14 -9 -14 -19 0 -11 -9 -23 -20 -26
-23 -7 -27 -25 -5 -25 8 0 15 -4 15 -10 0 -5 -4 -10 -10 -10 -5 0 -10 -7 -10
-15 0 -8 -6 -15 -12 -15 -19 0 14 -20 33 -20 12 0 15 7 12 23 -3 14 4 32 19
49 13 15 38 47 57 73 19 25 35 44 37 43 1 -2 -5 -34 -14 -71 -13 -55 -14 -72
-4 -85 30 -41 41 -85 47 -187 4 -61 9 -117 11 -125 11 -32 12 -255 2 -275 -6
-11 -32 -45 -58 -75 -26 -30 -51 -62 -56 -71 -5 -9 -43 -54 -84 -99 -41 -45
-85 -98 -98 -116 -25 -38 -40 -43 -49 -16 -3 9 -13 35 -23 57 -54 124 -69 163
-75 188 -4 15 -11 30 -16 33 -5 3 -9 14 -9 26 0 11 -6 34 -14 51 -7 18 -23 57
-36 87 -12 30 -28 69 -35 85 -7 17 -21 51 -32 77 -10 27 -23 48 -29 48 -7 0
-9 10 -7 24 7 32 -22 74 -103 152 l-64 62 40 -9 c22 -5 66 -23 97 -39 66 -34
123 -49 123 -31 0 6 -7 11 -15 11 -8 0 -15 4 -15 10 0 5 6 9 13 7 6 -1 11 4
10 11 -2 6 5 13 15 14 38 3 79 8 120 14 39 6 43 8 38 30 -3 12 -1 26 4 29 18
11 -30 45 -62 45 -39 0 -35 20 5 21 27 0 29 2 12 9 -18 8 -18 9 -2 9 10 1 27
10 39 21 12 11 29 20 37 20 9 1 29 12 46 25 l29 24 -25 -3 c-14 -1 -30 -6 -37
-10 -6 -4 -29 -5 -49 -2 -21 3 -56 6 -78 7 -58 2 -144 28 -165 49 -10 10 -20
16 -23 14 -2 -3 -10 9 -17 26 -7 16 -18 30 -24 30 -7 0 -22 11 -34 25 -13 15
-28 22 -37 19 -9 -4 -15 0 -15 10 0 20 -30 56 -47 56 -7 0 -13 6 -13 13 0 8
-11 24 -25 37 -14 13 -25 31 -25 39 0 14 -1 14 -10 1 -8 -12 -10 -11 -10 8 0
15 -6 22 -19 22 -13 0 -21 9 -26 30 -7 30 -19 38 -30 20 -7 -11 -35 12 -35 28
0 5 -6 15 -14 21 -11 9 -15 9 -19 -1 -3 -7 -6 1 -6 17 l-1 30 -16 -30 c-16
-31 -16 -71 1 -94 7 -10 7 -15 -2 -18 -7 -2 -9 -11 -6 -19 3 -7 9 -11 14 -8 5
3 9 -2 9 -10 0 -9 -3 -16 -8 -16 -11 0 -33 40 -28 49 3 5 -5 20 -19 35 -13 14
-22 26 -19 26 3 0 -4 13 -15 29 -12 16 -21 36 -21 45 0 9 -4 24 -9 34 -5 9
-17 36 -26 60 -10 23 -21 42 -24 42 -18 0 -91 186 -91 231 0 19 19 59 32 69 4
3 9 27 13 54 3 27 8 52 11 57 3 5 -2 9 -11 9 -13 0 -15 11 -13 68 l2 69 28 -3
c25 -3 31 1 44 34 9 20 20 45 25 54 5 11 2 24 -10 40 -10 13 -20 31 -24 41 -3
9 -13 17 -22 17 -8 0 -15 6 -15 14 0 8 -5 16 -10 18 -13 4 -16 64 -5 97 5 17
4 21 -5 16 -9 -6 -9 -3 -1 14 7 12 9 26 6 31 -3 5 2 22 12 36 17 27 17 27 -5
22 -19 -5 -20 -4 -11 13 5 10 7 19 3 19 -3 0 4 9 17 21 23 19 23 20 3 14 -15
-4 -24 0 -28 11 -11 28 10 40 47 26 18 -7 41 -12 49 -12 9 0 18 -5 20 -11 6
-17 48 11 48 31 0 17 -26 42 -53 53 -37 14 -15 25 38 20 43 -5 55 -3 55 8 0
12 24 35 78 75 8 6 13 19 11 29 -4 17 -5 18 -21 2 -21 -21 -28 -21 -28 -2 0 9
12 21 26 27 20 10 27 9 34 -2 7 -12 12 -11 29 4 12 11 21 22 21 25 0 11 -89
11 -95 1 -3 -6 -14 -10 -23 -10 -9 0 -30 -7 -46 -15 -28 -15 -28 -15 -21 12 3
15 8 52 11 83 4 52 4 54 -10 30 -9 -14 -15 -19 -16 -11 0 7 -6 11 -14 8 -15
-6 -17 24 -3 34 5 4 8 24 7 45 -3 91 0 125 16 156 9 18 20 62 25 98 9 77 13
95 30 135 7 17 11 38 10 47 -1 9 5 30 13 45 8 15 15 22 16 16 0 -7 5 -13 11
-13 6 0 8 8 5 18 -3 9 -1 24 4 32 8 13 9 13 14 0 2 -8 7 -22 9 -30 3 -8 6 -4
6 10 1 29 49 100 119 175 33 35 47 57 42 66 -7 10 -12 10 -23 0 -10 -8 -17 -9
-22 -1 -10 16 2 28 43 40 57 18 92 34 92 42 0 5 7 8 15 8 8 0 15 5 15 10 0 6
6 10 13 10 30 0 86 22 111 44 32 26 107 46 151 39 17 -2 57 -8 90 -12 62 -8
151 -40 259 -92 36 -18 68 -27 79 -23 14 4 17 3 12 -6 -7 -11 88 -111 110
-115 6 -1 16 -3 23 -3 7 -1 10 -7 7 -13 -4 -5 16 -33 44 -61 28 -28 51 -57 51
-65 0 -8 5 -11 10 -8 6 3 10 -1 10 -9 0 -8 6 -19 14 -23 7 -4 26 -32 41 -60
15 -29 31 -53 36 -53 5 0 9 -13 9 -30 0 -18 5 -30 13 -30 9 0 14 -12 15 -31 0
-18 6 -37 11 -42 6 -6 11 -21 11 -34 0 -13 5 -23 11 -23 6 0 9 -9 6 -20 -3
-11 -2 -22 2 -24 9 -6 6 -224 -3 -258 -6 -22 -5 -28 7 -28 12 0 16 24 22 129
8 138 5 171 -27 296 -24 99 -71 194 -142 288 -103 137 -190 214 -300 267 -41
20 -71 41 -74 53 -3 11 -8 14 -11 8 -5 -7 -18 -7 -44 1 -49 15 -47 24 3 20 32
-3 40 -1 40 13 0 10 -4 13 -12 9 -9 -6 -9 -3 0 9 8 9 11 25 7 38 -5 14 -4 19
4 15 7 -5 11 3 11 23 0 16 11 76 24 133 14 57 27 142 31 191 l7 87 -1516 0
-1516 0 0 -2125z m2478 1901 c-4 -19 -1 -22 15 -18 17 4 18 1 13 -25 -5 -21
-2 -35 8 -46 14 -14 14 -16 -2 -20 -11 -3 -9 -5 8 -6 20 -1 22 -3 10 -11 -12
-8 -10 -10 10 -11 19 -1 21 -2 6 -6 -15 -4 -16 -7 -5 -14 10 -6 7 -9 -13 -9
-14 0 -28 4 -30 9 -2 5 -34 4 -73 -1 -38 -5 -84 -6 -102 -3 -17 3 -33 1 -35
-4 -1 -5 -21 -11 -43 -13 -22 -3 -32 -3 -22 -1 9 2 17 9 17 14 0 5 11 9 23 9
13 0 32 9 41 19 10 11 35 23 57 26 21 4 37 10 34 15 -3 4 4 6 16 3 19 -5 21
-2 17 33 -1 21 -7 42 -12 45 -8 7 39 38 58 39 4 0 6 -11 4 -24z m-318 -171 c0
-8 8 -15 17 -15 36 0 -4 -18 -73 -34 -39 -9 -80 -18 -90 -22 -11 -3 -9 1 6 10
14 8 34 16 45 16 11 1 15 4 8 6 -9 4 -9 11 -1 30 9 19 19 24 50 24 27 0 38 -4
38 -15z m-241 -101 c-14 -17 -35 -18 -42 -1 -3 8 6 12 24 13 23 1 27 -2 18
-12z m-72 -40 c-3 -3 -12 -4 -19 -1 -8 3 -5 6 6 6 11 1 17 -2 13 -5z m-54 -18
c4 -10 0 -12 -15 -8 -15 4 -17 7 -6 13 17 11 15 11 21 -5z m-23 -20 c0 -3 -4
-8 -10 -11 -5 -3 -10 -1 -10 4 0 6 5 11 10 11 6 0 10 -2 10 -4z m-59 -39 c-10
-9 -11 -8 -5 6 3 10 9 15 12 12 3 -3 0 -11 -7 -18z m139 -1248 c0 -6 -4 -7
-10 -4 -5 3 -10 11 -10 16 0 6 5 7 10 4 6 -3 10 -11 10 -16z m-368 -817 l3
-157 -49 -3 c-55 -4 -106 6 -90 16 15 10 33 114 34 197 2 99 2 99 14 107 7 5
4 8 -7 8 -10 0 -15 5 -12 10 3 6 18 10 33 10 15 0 34 5 42 10 23 14 28 -20 32
-198z m-2 -662 c0 -5 -4 -10 -10 -10 -5 0 -10 5 -10 10 0 6 5 10 10 10 6 0 10
-4 10 -10z m-20 -105 l35 -38 -45 32 c-47 34 -79 72 -43 53 10 -6 34 -27 53
-47z m75 35 c3 -5 1 -10 -4 -10 -6 0 -11 5 -11 10 0 6 2 10 4 10 3 0 8 -4 11
-10z m125 -5 c10 -12 10 -15 -4 -15 -9 0 -16 7 -16 15 0 8 2 15 4 15 2 0 9 -7
16 -15z m-512 -14 c3 -8 -1 -12 -9 -9 -7 2 -15 10 -17 17 -3 8 1 12 9 9 7 -2
15 -10 17 -17z m-271 -27 c-3 -3 -12 -4 -19 -1 -8 3 -5 6 6 6 11 1 17 -2 13
-5z m313 -30 c0 -20 -7 -17 -20 6 -9 16 -8 18 5 14 8 -4 15 -12 15 -20z m536
-9 c12 -24 12 -24 -12 -7 -13 9 -24 22 -24 29 0 20 24 5 36 -22z m-616 -25 c0
-5 -4 -10 -10 -10 -5 0 -10 5 -10 10 0 6 5 10 10 10 6 0 10 -4 10 -10z m120
-15 c10 -12 10 -15 -4 -15 -9 0 -16 7 -16 15 0 8 2 15 4 15 2 0 9 -7 16 -15z
m202 3 c12 -7 33 -25 46 -40 13 -16 28 -28 34 -28 5 0 22 -13 36 -28 15 -16
36 -33 46 -39 11 -6 16 -15 11 -22 -5 -9 -11 -6 -22 8 -8 12 -26 27 -41 35
-15 8 -41 26 -57 40 -17 14 -46 39 -65 55 -35 31 -28 42 12 19z m1664 -15 c-7
-7 -26 7 -26 19 0 6 6 6 15 -2 9 -7 13 -15 11 -17z m-1319 0 c6 -18 20 -35 84
-103 19 -19 39 -45 46 -58 12 -22 12 -22 -12 -5 -14 10 -25 23 -25 29 0 6 -17
27 -37 47 -84 82 -102 107 -78 107 8 0 18 -8 22 -17z m-967 -42 c0 -9 14 -43
30 -76 16 -33 30 -66 30 -73 0 -7 4 -20 9 -30 23 -46 51 -114 51 -123 0 -6 6
-25 14 -42 7 -18 29 -69 49 -114 40 -93 32 -115 -9 -25 -40 87 -52 115 -57
137 -3 11 -15 45 -27 75 -12 30 -26 69 -31 87 -5 18 -14 35 -19 38 -6 4 -10
13 -10 22 0 15 -19 65 -46 116 -18 37 -18 53 1 37 8 -7 15 -20 15 -29z m345 8
c11 -17 -1 -21 -15 -4 -8 9 -8 15 -2 15 6 0 14 -5 17 -11z m1980 1 c3 -5 1
-10 -4 -10 -6 0 -11 5 -11 10 0 6 2 10 4 10 3 0 8 -4 11 -10z m-1855 -21 c0
-5 -4 -9 -10 -9 -5 0 -10 7 -10 16 0 8 5 12 10 9 6 -3 10 -10 10 -16z m-570
-15 c0 -8 -4 -12 -10 -9 -5 3 -10 10 -10 16 0 5 5 9 10 9 6 0 10 -7 10 -16z
m210 6 c0 -5 -2 -10 -4 -10 -3 0 -8 5 -11 10 -3 6 -1 10 4 10 6 0 11 -4 11
-10z m90 -10 c0 -5 -2 -10 -4 -10 -3 0 -8 5 -11 10 -3 6 -1 10 4 10 6 0 11 -4
11 -10z m-590 -10 c0 -5 -5 -10 -11 -10 -5 0 -7 5 -4 10 3 6 8 10 11 10 2 0 4
-4 4 -10z m110 -32 c0 -4 -7 -5 -15 -2 -8 4 -15 16 -15 27 0 20 0 20 15 1 8
-10 15 -22 15 -26z m90 32 c0 -5 -4 -10 -10 -10 -5 0 -10 5 -10 10 0 6 5 10
10 10 6 0 10 -4 10 -10z m2576 -17 c-7 -7 -26 7 -26 19 0 6 6 6 15 -2 9 -7 13
-15 11 -17z m-1991 -3 c4 -11 17 -27 30 -36 12 -8 25 -23 28 -34 4 -16 2 -17
-14 -7 -10 6 -19 17 -19 23 0 6 -11 21 -25 34 -26 24 -32 40 -16 40 5 0 13 -9
16 -20z m851 -78 c34 -34 42 -52 24 -52 -5 0 -10 4 -10 10 0 5 -27 37 -60 71
-33 34 -60 64 -60 67 0 6 32 -24 106 -96z m-726 67 c0 -5 -4 -9 -10 -9 -5 0
-10 7 -10 16 0 8 5 12 10 9 6 -3 10 -10 10 -16z m-380 -9 c0 -5 -4 -10 -10
-10 -5 0 -10 5 -10 10 0 6 5 10 10 10 6 0 10 -4 10 -10z m100 6 c0 -11 -19
-15 -25 -6 -3 5 1 10 9 10 9 0 16 -2 16 -4z m2200 -37 c0 -19 -27 -8 -38 16
-12 25 -12 25 13 9 14 -9 25 -20 25 -25z m-2065 21 c3 -5 1 -10 -4 -10 -6 0
-11 5 -11 10 0 6 2 10 4 10 3 0 8 -4 11 -10z m311 -25 c19 -19 41 -35 49 -35
8 0 15 -5 15 -11 0 -13 41 -48 57 -49 7 0 17 -9 23 -20 18 -33 -12 -24 -51 16
-21 21 -41 33 -51 31 -10 -3 -17 -2 -16 2 2 20 -6 31 -42 55 -23 15 -38 31
-35 36 9 15 13 13 51 -25z m-943 -7 c3 -13 12 -45 21 -71 8 -26 11 -45 6 -42
-5 3 -16 27 -24 53 -8 26 -17 55 -21 65 -4 9 -3 17 3 17 5 0 12 -10 15 -22z
m-93 -19 c0 -5 -4 -9 -10 -9 -5 0 -10 7 -10 16 0 8 5 12 10 9 6 -3 10 -10 10
-16z m620 5 c0 -9 -5 -14 -12 -12 -18 6 -21 28 -4 28 9 0 16 -7 16 -16z m-310
-21 c0 -22 -2 -25 -10 -13 -13 20 -13 40 0 40 6 0 10 -12 10 -27z m2530 -4 c0
-11 -27 -12 -34 0 -3 4 -3 11 0 14 8 8 34 -3 34 -14z m-2320 1 c0 -5 -4 -10
-10 -10 -5 0 -10 5 -10 10 0 6 5 10 10 10 6 0 10 -4 10 -10z m974 -6 c9 -22 8
-24 -9 -18 -8 4 -15 12 -15 20 0 19 16 18 24 -2z m-1626 -36 c12 -23 20 -43
18 -45 -2 -2 -15 16 -29 41 -14 26 -23 46 -19 46 4 0 17 -19 30 -42z m350 31
c-2 -6 -8 -10 -13 -10 -5 0 -11 4 -13 10 -2 6 4 11 13 11 9 0 15 -5 13 -11z
m441 -76 c8 -24 17 -43 22 -43 4 0 9 -15 12 -32 5 -37 31 -113 48 -142 6 -10
13 -30 15 -45 3 -14 12 -36 20 -48 8 -12 14 -30 14 -40 0 -10 6 -29 13 -43 8
-14 16 -37 20 -50 l6 -25 -19 25 c-10 13 -21 36 -24 51 -3 15 -12 34 -21 43
-9 9 -14 20 -10 26 3 5 -2 24 -10 41 -9 17 -19 43 -21 58 -3 14 -12 36 -20 48
-8 12 -14 29 -14 38 0 9 -8 30 -17 48 -9 18 -18 43 -19 55 -2 13 -10 34 -18
48 -9 13 -16 36 -16 51 l0 28 13 -25 c7 -14 19 -44 26 -67z m175 81 c9 -3 16
-11 16 -18 0 -7 18 -29 40 -50 22 -21 40 -43 40 -49 0 -7 -27 17 -60 51 -69
74 -73 80 -36 66z m866 -20 c0 -2 -7 -4 -15 -4 -8 0 -15 4 -15 10 0 5 7 7 15
4 8 -4 15 -8 15 -10z m1055 -14 c3 -5 -1 -10 -9 -10 -9 0 -16 5 -16 10 0 6 4
10 9 10 6 0 13 -4 16 -10z m125 -12 c0 -13 -23 -5 -28 10 -2 7 2 10 12 6 9 -3
16 -11 16 -16z m100 0 c0 -13 -23 -5 -28 10 -2 7 2 10 12 6 9 -3 16 -11 16
-16z m-2640 -14 c0 -9 -5 -14 -12 -12 -18 6 -21 28 -4 28 9 0 16 -7 16 -16z
m700 -13 c3 -4 19 -17 35 -29 32 -24 60 -47 140 -112 96 -79 110 -91 130 -104
11 -8 17 -18 13 -22 -4 -3 -23 7 -43 25 -20 17 -40 31 -46 31 -6 0 -22 14 -36
30 -13 17 -30 30 -37 30 -7 0 -27 16 -46 35 -19 19 -37 35 -41 35 -3 0 -23 16
-43 35 -21 19 -41 35 -44 35 -4 0 -13 9 -20 21 -12 19 -12 19 10 8 13 -7 25
-15 28 -18z m1630 13 c0 -8 -5 -12 -10 -9 -6 4 -8 11 -5 16 9 14 15 11 15 -7z
m-1110 -15 c0 -5 -4 -9 -10 -9 -5 0 -10 7 -10 16 0 8 5 12 10 9 6 -3 10 -10
10 -16z m-1000 -10 c0 -18 -2 -19 -15 -9 -8 7 -15 16 -15 21 0 5 7 9 15 9 9 0
15 -9 15 -21z m2470 0 c0 -4 -7 -6 -15 -3 -8 4 -15 10 -15 15 0 4 7 6 15 3 8
-4 15 -10 15 -15z m-115 1 c3 -5 1 -10 -4 -10 -6 0 -11 5 -11 10 0 6 2 10 4
10 3 0 8 -4 11 -10z m-3320 -10 c3 -5 1 -10 -4 -10 -6 0 -11 5 -11 10 0 6 2
10 4 10 3 0 8 -4 11 -10z m655 2 c0 -13 -12 -22 -22 -16 -10 6 -1 24 13 24 5
0 9 -4 9 -8z m2558 -11 c3 -8 -1 -12 -9 -9 -7 2 -15 10 -17 17 -3 8 1 12 9 9
7 -2 15 -10 17 -17z m-2888 -50 c0 -25 -18 1 -25 34 l-6 30 15 -25 c8 -14 15
-32 16 -39z m190 38 c0 -6 -4 -7 -10 -4 -5 3 -10 11 -10 16 0 6 5 7 10 4 6 -3
10 -11 10 -16z m-95 -8 c3 -5 1 -12 -4 -15 -5 -3 -11 1 -15 9 -6 16 9 21 19 6z
m1230 -1 c3 -5 1 -10 -4 -10 -6 0 -11 5 -11 10 0 6 2 10 4 10 3 0 8 -4 11 -10z
m1475 0 c0 -5 -2 -10 -4 -10 -3 0 -8 5 -11 10 -3 6 -1 10 4 10 6 0 11 -4 11
-10z m-2895 -10 c3 -5 1 -10 -4 -10 -6 0 -11 5 -11 10 0 6 2 10 4 10 3 0 8 -4
11 -10z m3140 0 c3 -5 2 -10 -4 -10 -5 0 -13 5 -16 10 -3 6 -2 10 4 10 5 0 13
-4 16 -10z m-3327 -45 l13 -30 -21 25 c-11 14 -20 32 -20 40 0 19 13 3 28 -35z
m732 30 c0 -8 -4 -15 -10 -15 -5 0 -10 7 -10 15 0 8 5 15 10 15 6 0 10 -7 10
-15z m610 2 c0 -7 18 -24 40 -37 22 -14 40 -28 40 -32 0 -4 20 -21 45 -38 25
-17 45 -35 45 -40 0 -15 -31 1 -60 32 -15 15 -31 28 -37 28 -5 0 -24 16 -43
35 -19 19 -39 35 -46 35 -6 0 -14 7 -18 15 -4 10 1 15 14 15 11 0 20 -6 20
-13z m-67 -42 c-8 -14 -11 -14 -21 -2 -7 8 -9 22 -6 32 6 15 8 15 21 2 11 -10
12 -20 6 -32z m1937 35 c0 -5 -2 -10 -4 -10 -3 0 -8 5 -11 10 -3 6 -1 10 4 10
6 0 11 -4 11 -10z m-2260 -26 c0 -14 -12 -19 -23 -8 -9 9 4 35 14 28 5 -3 9
-12 9 -20z m-442 -12 c2 -7 -3 -12 -12 -12 -9 0 -16 7 -16 16 0 17 22 14 28
-4z m2622 -13 c0 -6 -4 -7 -10 -4 -5 3 -10 11 -10 16 0 6 5 7 10 4 6 -3 10
-11 10 -16z m-2913 -15 c-9 -9 -28 6 -21 18 4 6 10 6 17 -1 6 -6 8 -13 4 -17z
m111 -22 c7 -20 18 -55 23 -77 6 -22 14 -44 20 -49 5 -6 9 -19 9 -30 0 -20 0
-20 -15 0 -8 10 -15 26 -15 34 0 8 -7 28 -15 44 -8 15 -15 36 -15 45 0 9 -7
29 -15 45 -18 34 -18 37 -2 31 7 -3 18 -22 25 -43z m79 22 c-9 -9 -28 6 -21
18 4 6 10 6 17 -1 6 -6 8 -13 4 -17z m-381 -11 c3 -10 11 -31 19 -48 16 -36
55 -143 55 -152 0 -13 -29 32 -30 45 0 16 -22 69 -68 165 -2 4 1 7 7 7 7 0 14
-8 17 -17z m104 13 c0 -11 -19 -15 -25 -6 -3 5 1 10 9 10 9 0 16 -2 16 -4z
m631 -9 c-1 -12 -15 -9 -19 4 -3 6 1 10 8 8 6 -3 11 -8 11 -12z m-831 -17 c0
-5 -4 -10 -10 -10 -5 0 -10 5 -10 10 0 6 5 10 10 10 6 0 10 -4 10 -10z m1060
-27 c0 -24 -25 -9 -28 17 -3 21 -2 22 12 11 9 -7 16 -20 16 -28z m308 9 c4
-25 -13 -30 -22 -6 -9 25 -7 36 7 32 6 -3 13 -14 15 -26z m1877 8 c3 -5 1 -10
-4 -10 -6 0 -11 5 -11 10 0 6 2 10 4 10 3 0 8 -4 11 -10z m285 -10 c0 -5 -4
-10 -10 -10 -5 0 -10 5 -10 10 0 6 5 10 10 10 6 0 10 -4 10 -10z m-2920 -37
c0 -13 -3 -13 -15 -3 -8 7 -15 19 -15 27 0 13 3 13 15 3 8 -7 15 -19 15 -27z
m-100 17 c0 -5 -4 -10 -10 -10 -5 0 -10 5 -10 10 0 6 5 10 10 10 6 0 10 -4 10
-10z m-286 -21 c-3 -5 -10 -7 -15 -3 -5 3 -7 10 -3 15 3 5 10 7 15 3 5 -3 7
-10 3 -15z m96 0 c0 -6 -4 -7 -10 -4 -5 3 -10 11 -10 16 0 6 5 7 10 4 6 -3 10
-11 10 -16z m3388 -3 c3 -12 -1 -17 -10 -14 -7 3 -15 13 -16 22 -3 12 1 17 10
14 7 -3 15 -13 16 -22z m-2201 -47 c0 -22 5 -45 12 -52 6 -6 11 -22 11 -36 -1
-25 -1 -25 -12 -6 -7 11 -13 31 -14 43 -2 13 -10 34 -18 47 -8 12 -12 32 -9
44 9 35 30 7 30 -40z m-1477 30 c0 -6 -4 -7 -10 -4 -5 3 -10 11 -10 16 0 6 5
7 10 4 6 -3 10 -11 10 -16z m1056 -36 c-11 -11 -26 10 -26 35 l1 27 15 -28 c9
-16 13 -31 10 -34z m567 14 c9 -24 -26 -9 -47 20 l-18 25 30 -16 c16 -8 32
-22 35 -29z m-823 17 c0 -17 -22 -14 -28 4 -2 7 3 12 12 12 9 0 16 -7 16 -16z
m-190 -56 c0 -22 -1 -21 -15 6 -19 36 -19 52 0 32 8 -8 15 -25 15 -38z m763
16 c-4 -11 -9 -12 -19 -4 -7 7 -10 18 -7 26 4 11 9 12 19 4 7 -7 10 -18 7 -26z
m-863 1 c0 -8 -4 -15 -10 -15 -5 0 -10 7 -10 15 0 8 5 15 10 15 6 0 10 -7 10
-15z m416 -58 c1 -18 0 -25 -3 -17 -3 8 -10 21 -16 28 -6 7 -11 25 -12 39 l-1
25 15 -22 c8 -12 16 -36 17 -53z m1268 52 c-3 -5 -10 -7 -15 -3 -5 3 -7 10 -3
15 3 5 10 7 15 3 5 -3 7 -10 3 -15z m1521 3 c-3 -3 -11 0 -18 7 -9 10 -8 11 6
5 10 -3 15 -9 12 -12z m-3395 -8 c0 -8 -4 -12 -10 -9 -5 3 -10 10 -10 16 0 5
5 9 10 9 6 0 10 -7 10 -16z m1368 -14 c7 0 12 -7 12 -15 0 -24 -14 -18 -40 18
-19 26 -20 29 -3 15 11 -10 25 -18 31 -18z m-1463 10 c3 -5 1 -10 -4 -10 -6 0
-11 5 -11 10 0 6 2 10 4 10 3 0 8 -4 11 -10z m840 0 c3 -5 1 -10 -4 -10 -6 0
-11 5 -11 10 0 6 2 10 4 10 3 0 8 -4 11 -10z m2570 0 c3 -5 1 -10 -4 -10 -6 0
-11 5 -11 10 0 6 2 10 4 10 3 0 8 -4 11 -10z m-3605 -16 c0 -8 -4 -12 -10 -9
-5 3 -10 10 -10 16 0 5 5 9 10 9 6 0 10 -7 10 -16z m1380 -64 c0 -14 -20 -12
-24 3 -3 6 -7 26 -11 42 l-6 30 21 -33 c11 -18 20 -37 20 -42z m798 45 c-3 -3
-9 2 -12 12 -6 14 -5 15 5 6 7 -7 10 -15 7 -18z m932 6 c0 -5 -13 -16 -30 -24
l-29 -15 16 24 c15 24 43 33 43 15z m-2496 -71 l6 -35 -20 33 c-11 18 -20 42
-20 54 0 22 0 22 13 3 8 -11 17 -36 21 -55z m186 54 c0 -9 -5 -14 -12 -12 -18
6 -21 28 -4 28 9 0 16 -7 16 -16z m254 10 c9 -3 14 -10 11 -15 -7 -10 -35 0
-35 12 0 11 3 11 24 3z m3016 -4 c0 -5 -4 -10 -10 -10 -5 0 -10 5 -10 10 0 6
5 10 10 10 6 0 10 -4 10 -10z m-3750 -46 c0 -14 -12 -19 -23 -8 -9 9 4 35 14
28 5 -3 9 -12 9 -20z m187 0 c-9 -9 -28 6 -21 18 4 6 10 6 17 -1 6 -6 8 -13 4
-17z m2933 16 c0 -5 -5 -10 -11 -10 -5 0 -7 5 -4 10 3 6 8 10 11 10 2 0 4 -4
4 -10z m-3213 -26 c-9 -9 -28 6 -21 18 4 6 10 6 17 -1 6 -6 8 -13 4 -17z
m1521 7 c3 -8 -1 -12 -9 -9 -7 2 -15 10 -17 17 -3 8 1 12 9 9 7 -2 15 -10 17
-17z m1516 -6 c-4 -8 -11 -15 -16 -15 -6 0 -5 6 2 15 7 8 14 15 16 15 2 0 1
-7 -2 -15z m514 -4 c3 -8 -1 -12 -9 -9 -7 2 -15 10 -17 17 -3 8 1 12 9 9 7 -2
15 -10 17 -17z m-3738 -1 c0 -5 -7 -10 -15 -10 -8 0 -15 5 -15 10 0 6 7 10 15
10 8 0 15 -4 15 -10z m880 -16 c0 -8 -4 -12 -10 -9 -5 3 -10 13 -10 21 0 8 5
12 10 9 6 -3 10 -13 10 -21z m3170 -15 c0 -5 -4 -9 -10 -9 -5 0 -10 7 -10 16
0 8 5 12 10 9 6 -3 10 -10 10 -16z m-3260 -16 c0 -13 -3 -13 -15 -3 -8 7 -12
16 -9 21 8 13 24 1 24 -18z m570 -3 c4 -3 10 -21 14 -40 l6 -35 -20 33 c-11
18 -20 42 -19 55 0 15 2 17 6 7 3 -8 9 -17 13 -20z m576 7 c4 -4 -2 -7 -14 -7
-11 0 -24 5 -27 10 -7 11 30 8 41 -3z m264 -24 c0 -20 -16 -8 -23 17 -4 17 -3
19 9 9 8 -6 14 -18 14 -26z m1080 27 c0 -5 -4 -10 -10 -10 -5 0 -10 5 -10 10
0 6 5 10 10 10 6 0 10 -4 10 -10z m-2780 -15 c10 -12 10 -15 -4 -15 -9 0 -16
7 -16 15 0 8 2 15 4 15 2 0 9 -7 16 -15z m100 -6 c0 -18 -2 -19 -15 -9 -8 7
-15 16 -15 21 0 5 7 9 15 9 9 0 15 -9 15 -21z m2890 -10 c0 -5 -7 -9 -15 -9
-9 0 -15 9 -15 21 0 18 2 19 15 9 8 -7 15 -16 15 -21z m-2376 -34 l7 -30 -21
33 c-23 38 -27 64 -6 42 7 -8 17 -28 20 -45z m2036 45 c0 -5 -5 -10 -11 -10
-5 0 -7 5 -4 10 3 6 8 10 11 10 2 0 4 -4 4 -10z m620 -6 c0 -8 -4 -12 -10 -9
-5 3 -10 10 -10 16 0 5 5 9 10 9 6 0 10 -7 10 -16z m-3552 -12 c6 -18 -15 -14
-22 4 -4 10 -1 14 6 12 6 -2 14 -10 16 -16z m92 -3 c0 -11 -4 -17 -10 -14 -5
3 -10 13 -10 21 0 8 5 14 10 14 6 0 10 -9 10 -21z m876 -16 c-7 -7 -26 7 -26
19 0 6 6 6 15 -2 9 -7 13 -15 11 -17z m-1161 7 c3 -5 -1 -10 -9 -10 -9 0 -16
5 -16 10 0 6 4 10 9 10 6 0 13 -4 16 -10z m3282 -47 c0 -27 4 -64 11 -83 l11
-35 -19 24 c-26 30 -29 141 -4 141 1 0 2 -21 1 -47z m-3383 16 c-3 -5 -10 -7
-15 -3 -5 3 -7 10 -3 15 3 5 10 7 15 3 5 -3 7 -10 3 -15z m1751 11 c3 -5 1
-10 -4 -10 -6 0 -11 5 -11 10 0 6 2 10 4 10 3 0 8 -4 11 -10z m645 0 c0 -5 -4
-10 -10 -10 -5 0 -10 5 -10 10 0 6 5 10 10 10 6 0 10 -4 10 -10z m1750 -11 c0
-5 -4 -9 -10 -9 -5 0 -10 7 -10 16 0 8 5 12 10 9 6 -3 10 -10 10 -16z m-3440
-22 c0 -12 9 -36 20 -54 11 -19 15 -35 10 -38 -13 -8 -32 4 -25 15 3 5 -1 26
-10 46 -17 42 -20 68 -5 59 6 -3 10 -16 10 -28z m190 18 c0 -8 -4 -15 -9 -15
-13 0 -22 16 -14 24 11 11 23 6 23 -9z m1264 -34 c13 -27 27 -62 30 -78 7 -27
7 -27 -8 -8 -8 11 -16 25 -16 31 0 6 -11 32 -24 57 -13 26 -19 47 -15 47 5 0
20 -22 33 -49z m-1546 10 c3 -8 -1 -12 -9 -9 -7 2 -15 10 -17 17 -3 8 1 12 9
9 7 -2 15 -10 17 -17z m869 -23 c3 -22 3 -22 -15 -3 -11 11 -17 26 -14 33 6
18 25 -1 29 -30z m563 32 c0 -5 -2 -10 -4 -10 -3 0 -8 5 -11 10 -3 6 -1 10 4
10 6 0 11 -4 11 -10z m260 -11 c0 -11 -4 -17 -10 -14 -5 3 -10 13 -10 21 0 8
5 14 10 14 6 0 10 -9 10 -21z m862 -1 c-7 -7 -12 -8 -12 -2 0 14 12 26 19 19
2 -3 -1 -11 -7 -17z m343 12 c3 -5 2 -10 -4 -10 -5 0 -13 5 -16 10 -3 6 -2 10
4 10 5 0 13 -4 16 -10z m290 0 c3 -5 1 -10 -4 -10 -6 0 -11 5 -11 10 0 6 2 10
4 10 3 0 8 -4 11 -10z m-2587 -24 c3 -12 -1 -17 -10 -14 -7 3 -15 13 -16 22
-3 12 1 17 10 14 7 -3 15 -13 16 -22z m2422 14 c0 -5 -2 -10 -4 -10 -3 0 -8 5
-11 10 -3 6 -1 10 4 10 6 0 11 -4 11 -10z m-3312 -18 c6 -18 -15 -14 -22 4 -4
10 -1 14 6 12 6 -2 14 -10 16 -16z m92 -15 c0 -18 -2 -19 -10 -7 -13 20 -13
43 0 35 6 -3 10 -16 10 -28z m2820 29 c0 -3 -4 -8 -10 -11 -5 -3 -10 -1 -10 4
0 6 5 11 10 11 6 0 10 -2 10 -4z m-120 -41 c-18 -19 -36 -32 -39 -30 -4 5 58
64 68 65 3 0 -10 -16 -29 -35z m-2986 10 c3 -8 1 -15 -4 -15 -6 0 -10 7 -10
15 0 8 2 15 4 15 2 0 6 -7 10 -15z m3186 -11 c0 -8 -5 -12 -10 -9 -6 4 -8 11
-5 16 9 14 15 11 15 -7z m-3280 -15 c0 -6 -4 -7 -10 -4 -5 3 -10 11 -10 16 0
6 5 7 10 4 6 -3 10 -11 10 -16z m894 -11 c-3 -5 -12 -4 -20 3 -7 6 -11 15 -8
21 3 5 12 4 20 -3 7 -6 11 -15 8 -21z m864 13 c3 -8 -1 -12 -9 -9 -7 2 -15 10
-17 17 -3 8 1 12 9 9 7 -2 15 -10 17 -17z m86 3 c9 -24 7 -28 -9 -14 -17 14
-20 30 -6 30 5 0 12 -7 15 -16z m-364 -44 c0 -8 9 -29 19 -46 10 -17 22 -45
26 -62 3 -18 11 -34 16 -37 5 -4 9 -16 9 -28 0 -12 7 -35 15 -51 21 -39 20
-63 0 -46 -9 7 -14 19 -11 26 3 7 -4 29 -15 50 -10 21 -19 44 -19 52 0 15 -18
60 -51 127 -23 49 -26 78 -4 49 8 -10 15 -26 15 -34z m920 40 c0 -5 -2 -10 -4
-10 -3 0 -8 5 -11 10 -3 6 -1 10 4 10 6 0 11 -4 11 -10z m560 6 c0 -2 -7 -7
-16 -10 -8 -3 -12 -2 -9 4 6 10 25 14 25 6z m688 -20 c3 -12 -1 -17 -10 -14
-7 3 -15 13 -16 22 -3 12 1 17 10 14 7 -3 15 -13 16 -22z m152 -7 c0 -5 -4 -9
-10 -9 -5 0 -10 7 -10 16 0 8 5 12 10 9 6 -3 10 -10 10 -16z m-3192 0 c-2 -6
-8 -10 -13 -10 -5 0 -11 4 -13 10 -2 6 4 11 13 11 9 0 15 -5 13 -11z m1372 -5
c0 -8 -4 -12 -10 -9 -5 3 -10 10 -10 16 0 5 5 9 10 9 6 0 10 -7 10 -16z m1580
6 c0 -5 -2 -10 -4 -10 -3 0 -8 5 -11 10 -3 6 -1 10 4 10 6 0 11 -4 11 -10z
m150 0 c0 -5 -2 -10 -4 -10 -3 0 -8 5 -11 10 -3 6 -1 10 4 10 6 0 11 -4 11
-10z m-1400 -16 c0 -8 -4 -12 -10 -9 -5 3 -10 10 -10 16 0 5 5 9 10 9 6 0 10
-7 10 -16z m-1990 -10 c0 -14 -3 -14 -15 -4 -8 7 -15 14 -15 16 0 2 7 4 15 4
8 0 15 -7 15 -16z m87 -10 c-9 -9 -28 6 -21 18 4 6 10 6 17 -1 6 -6 8 -13 4
-17z m2753 -12 c1 -15 7 -38 15 -52 22 -38 19 -57 -5 -35 -11 10 -20 29 -20
42 0 13 -5 33 -10 44 -6 11 -8 24 -5 29 10 17 25 1 25 -28z m-1950 12 c0 -9
-5 -14 -12 -12 -18 6 -21 28 -4 28 9 0 16 -7 16 -16z m2020 -11 c0 -13 -3 -13
-15 -3 -8 7 -12 16 -9 21 8 13 24 1 24 -18z m-2491 -70 c23 -69 26 -87 11 -78
-5 3 -10 16 -10 28 0 12 -6 33 -13 47 -16 30 -32 104 -18 80 5 -8 19 -43 30
-77z m2141 82 c0 -2 -10 -10 -22 -16 -21 -11 -22 -11 -9 4 13 16 31 23 31 12z
m110 -10 c-7 -9 -15 -13 -19 -10 -3 3 1 10 9 15 21 14 24 12 10 -5z m107 -17
c-3 -7 -5 -2 -5 12 0 14 2 19 5 13 2 -7 2 -19 0 -25z m213 5 c0 -13 -3 -13
-15 -3 -8 7 -12 16 -9 21 8 13 24 1 24 -18z m80 12 c10 -12 10 -15 -4 -15 -9
0 -16 7 -16 15 0 8 2 15 4 15 2 0 9 -7 16 -15z m-3262 -14 c3 -8 -1 -12 -9 -9
-7 2 -15 10 -17 17 -3 8 1 12 9 9 7 -2 15 -10 17 -17z m2211 -17 c23 -39 25
-44 13 -44 -5 0 -16 18 -25 40 -19 49 -15 51 12 4z m1641 26 c0 -5 -2 -10 -4
-10 -3 0 -8 5 -11 10 -3 6 -1 10 4 10 6 0 11 -4 11 -10z m-3950 -21 c0 -6 -4
-7 -10 -4 -5 3 -10 11 -10 16 0 6 5 7 10 4 6 -3 10 -11 10 -16z m891 8 c-1
-12 -15 -9 -19 4 -3 6 1 10 8 8 6 -3 11 -8 11 -12z m863 -3 c4 -9 4 -19 2 -21
-8 -8 -26 8 -26 23 0 19 16 18 24 -2z m1816 -10 c0 -8 -4 -12 -10 -9 -5 3 -10
13 -10 21 0 8 5 12 10 9 6 -3 10 -13 10 -21z m-1412 -9 c-3 -3 -9 2 -12 12 -6
14 -5 15 5 6 7 -7 10 -15 7 -18z m1482 -25 c0 -20 -2 -22 -10 -10 -5 8 -10 26
-10 40 0 20 2 22 10 10 5 -8 10 -26 10 -40z m-3035 22 c0 -18 -20 -15 -23 4
-3 10 1 15 10 12 7 -3 13 -10 13 -16z m1475 -8 c0 -8 -4 -14 -9 -14 -11 0 -22
26 -14 34 9 9 23 -3 23 -20z m940 5 c0 -5 -4 -9 -10 -9 -5 0 -10 7 -10 16 0 8
5 12 10 9 6 -3 10 -10 10 -16z m780 0 c0 -5 -4 -9 -10 -9 -5 0 -10 7 -10 16 0
8 5 12 10 9 6 -3 10 -10 10 -16z m-90 1 c0 -5 -2 -10 -4 -10 -3 0 -8 5 -11 10
-3 6 -1 10 4 10 6 0 11 -4 11 -10z m-945 -10 c-3 -5 -12 -10 -18 -10 -7 0 -6
4 3 10 19 12 23 12 15 0z m305 -11 c0 -11 -4 -17 -10 -14 -5 3 -10 13 -10 21
0 8 5 14 10 14 6 0 10 -9 10 -21z m-2750 -5 c0 -8 -4 -12 -10 -9 -5 3 -10 10
-10 16 0 5 5 9 10 9 6 0 10 -7 10 -16z m88 -15 c4 -24 3 -24 -12 -4 -19 24
-20 38 -3 33 6 -3 13 -15 15 -29z m2907 21 c3 -5 1 -10 -4 -10 -6 0 -11 5 -11
10 0 6 2 10 4 10 3 0 8 -4 11 -10z m-2110 -21 c8 -23 1 -34 -14 -24 -13 8 -15
45 -2 45 5 0 13 -9 16 -21z m-275 -38 c0 -15 7 -36 15 -47 8 -10 15 -30 15
-43 0 -24 0 -24 -15 -5 -8 10 -15 28 -15 39 0 11 -7 33 -15 49 -20 39 -20 63
0 46 8 -7 15 -25 15 -39z m-800 13 c0 -16 -16 -19 -25 -4 -8 13 4 32 16 25 5
-4 9 -13 9 -21z m2709 -23 c-12 -23 -26 -41 -31 -41 -4 0 2 17 13 38 31 54 31
54 36 48 3 -2 -5 -23 -18 -45z m111 34 c-7 -9 -15 -13 -17 -11 -7 7 7 26 19
26 6 0 6 -6 -2 -15z m-2920 -16 c0 -6 -4 -7 -10 -4 -5 3 -10 11 -10 16 0 6 5
7 10 4 6 -3 10 -11 10 -16z m3487 -1 c-3 -8 -6 -5 -6 6 -1 11 2 17 5 13 3 -3
4 -12 1 -19z m513 0 c0 -18 -2 -20 -9 -8 -6 8 -7 18 -5 22 9 14 14 9 14 -14z
m-1980 2 c0 -5 -2 -10 -4 -10 -3 0 -8 5 -11 10 -3 6 -1 10 4 10 6 0 11 -4 11
-10z m180 -72 c10 -21 15 -38 10 -38 -12 0 -60 103 -53 114 4 5 11 -1 15 -15
5 -13 18 -41 28 -61z m1130 72 c0 -5 -2 -10 -4 -10 -3 0 -8 5 -11 10 -3 6 -1
10 4 10 6 0 11 -4 11 -10z m230 -18 c0 -15 -2 -15 -10 -2 -13 20 -13 33 0 25
6 -3 10 -14 10 -23z m-2950 -13 c0 -5 -7 -9 -15 -9 -9 0 -15 9 -15 21 0 18 2
19 15 9 8 -7 15 -16 15 -21z m1475 21 c3 -5 1 -10 -4 -10 -6 0 -11 5 -11 10 0
6 2 10 4 10 3 0 8 -4 11 -10z m-891 -32 c9 -17 16 -43 16 -57 l0 -26 -14 26
c-12 23 -27 89 -20 89 1 0 10 -14 18 -32z m1791 22 c3 -5 1 -10 -4 -10 -6 0
-11 5 -11 10 0 6 2 10 4 10 3 0 8 -4 11 -10z m95 -11 c0 -4 -7 -6 -15 -3 -8 4
-15 10 -15 15 0 4 7 6 15 3 8 -4 15 -10 15 -15z m-160 -22 c0 -5 -4 -5 -10 -2
-5 3 -10 14 -10 23 0 15 2 15 10 2 5 -8 10 -19 10 -23z m-2600 8 c0 -8 -4 -15
-10 -15 -5 0 -10 7 -10 15 0 8 5 15 10 15 6 0 10 -7 10 -15z m94 -35 l7 -35
-16 34 c-17 37 -20 60 -6 46 5 -6 12 -26 15 -45z m313 -11 c7 -9 11 -24 7 -34
-7 -16 -8 -16 -18 1 -6 11 -11 33 -13 49 -1 17 0 23 4 15 3 -8 12 -22 20 -31z
m2637 25 c3 -9 6 -28 6 -42 -1 -26 -1 -26 -15 7 -8 18 -15 37 -15 42 0 15 17
10 24 -7z m-1304 -20 c0 -8 -4 -12 -10 -9 -5 3 -10 13 -10 21 0 8 5 12 10 9 6
-3 10 -13 10 -21z m1228 7 c3 -8 -1 -12 -9 -9 -7 2 -15 10 -17 17 -3 8 1 12 9
9 7 -2 15 -10 17 -17z m-3165 -6 c4 -8 2 -17 -3 -20 -6 -4 -10 -4 -10 -1 0 2
-3 11 -6 20 -3 9 -2 16 4 16 5 0 12 -7 15 -15z m2907 -6 c0 -6 -4 -7 -10 -4
-5 3 -10 11 -10 16 0 6 5 7 10 4 6 -3 10 -11 10 -16z m1340 11 c0 -5 -4 -10
-10 -10 -5 0 -10 5 -10 10 0 6 5 10 10 10 6 0 10 -4 10 -10z m-4340 -15 c0
-19 -6 -19 -14 0 -3 8 -1 15 4 15 6 0 10 -7 10 -15z m2737 -7 c-3 -8 -6 -5 -6
6 -1 11 2 17 5 13 3 -3 4 -12 1 -19z m91 3 c3 -8 -1 -12 -9 -9 -7 2 -15 10
-17 17 -3 8 1 12 9 9 7 -2 15 -10 17 -17z m652 3 c0 -8 -4 -12 -10 -9 -5 3
-10 10 -10 16 0 5 5 9 10 9 6 0 10 -7 10 -16z m70 -10 c0 -8 -4 -12 -10 -9 -5
3 -10 13 -10 21 0 8 5 12 10 9 6 -3 10 -13 10 -21z m170 5 c0 -5 -4 -9 -10 -9
-5 0 -10 7 -10 16 0 8 5 12 10 9 6 -3 10 -10 10 -16z m254 5 c3 -8 2 -12 -4
-9 -6 3 -10 10 -10 16 0 14 7 11 14 -7z m-3366 -26 c-5 -15 -23 -11 -26 6 -2
11 2 14 13 10 9 -4 14 -11 13 -16z m-290 -17 c3 -8 -1 -12 -9 -9 -7 2 -15 10
-17 17 -3 8 1 12 9 9 7 -2 15 -10 17 -17z"/>
<path d="M2470 4496 c0 -14 4 -27 8 -30 5 -3 6 8 4 25 -5 35 -12 38 -12 5z"/>
<path d="M2480 4440 c0 -5 5 -10 11 -10 5 0 7 5 4 10 -3 6 -8 10 -11 10 -2 0
-4 -4 -4 -10z"/>
<path d="M2338 4423 c12 -2 32 -2 45 0 12 2 2 4 -23 4 -25 0 -35 -2 -22 -4z"/>
<path d="M2086 4381 c-3 -5 1 -12 10 -15 27 -10 36 -7 20 9 -17 17 -23 18 -30
6z"/>
<path d="M2580 4260 c0 -5 5 -10 11 -10 5 0 7 5 4 10 -3 6 -8 10 -11 10 -2 0
-4 -4 -4 -10z"/>
<path d="M3483 3193 c-8 -2 -13 -22 -13 -44 l0 -39 20 20 c11 11 20 31 20 45
0 25 -4 28 -27 18z"/>
<path d="M2159 3132 c-26 -18 -15 -32 24 -32 18 0 69 -7 114 -15 125 -22 180
-2 116 41 -23 16 -47 19 -132 19 -69 0 -110 -4 -122 -13z"/>
<path d="M3008 3095 c-18 -23 -18 -23 22 -30 22 -4 64 -4 92 0 51 7 51 8 29
24 -12 9 -37 18 -55 19 -17 1 -41 4 -51 6 -12 2 -27 -5 -37 -19z"/>
<path d="M3481 3024 c0 -11 3 -14 6 -6 3 7 2 16 -1 19 -3 4 -6 -2 -5 -13z"/>
<path d="M2500 3020 c0 -5 4 -10 9 -10 9 0 8 -139 -2 -200 -16 -96 -15 -119 2
-125 10 -3 23 -17 29 -31 17 -36 15 -46 -5 -36 -21 11 -71 -14 -87 -43 -6 -11
-17 -24 -24 -28 -27 -18 -65 -64 -83 -102 -20 -42 -26 -111 -9 -100 5 3 7 0 4
-8 -3 -8 2 -21 10 -30 9 -9 13 -23 10 -34 -6 -16 -5 -15 9 2 8 11 13 23 11 27
-3 5 -1 8 3 8 5 0 14 -9 21 -21 10 -15 10 -19 1 -14 -7 5 -10 4 -6 -2 4 -6 34
-13 68 -16 34 -3 66 -10 72 -16 13 -13 68 -14 120 -2 44 11 59 22 37 29 -8 3
-34 25 -58 49 -44 45 -47 58 -26 135 3 9 0 19 -6 23 -5 3 -10 24 -10 45 0 21
-6 41 -12 44 -10 5 -10 7 0 12 10 5 10 8 -1 18 -20 16 -31 77 -13 70 20 -8 25
4 43 114 15 94 15 101 -3 147 -22 59 -59 105 -85 105 -10 0 -19 -4 -19 -10z
m33 -509 c6 -6 12 -37 12 -69 0 -55 -1 -57 -29 -60 -39 -5 -61 27 -67 93 -3
49 0 53 37 51 19 -2 41 -9 47 -15z"/>
<path d="M2404 2979 c26 -17 49 -29 52 -27 6 7 -72 58 -88 58 -6 0 10 -14 36
-31z"/>
<path d="M2080 2986 c-30 -8 -60 -26 -87 -53 l-41 -41 40 -4 c22 -2 42 0 45 5
3 5 22 6 43 2 40 -7 62 7 35 22 -12 7 -11 11 6 21 12 8 18 9 15 3 -14 -22 41
-35 138 -32 36 1 38 3 32 26 -13 52 17 53 74 2 19 -17 40 -27 53 -25 18 2 14
8 -26 31 -26 15 -66 34 -88 42 -50 18 -176 18 -239 1z m200 -41 c0 -8 -9 -15
-20 -15 -11 0 -20 7 -20 15 0 8 9 15 20 15 11 0 20 -7 20 -15z"/>
<path d="M2967 2990 c-42 -13 -61 -31 -45 -41 10 -7 10 -9 1 -9 -7 0 -13 -7
-13 -16 0 -14 1 -14 16 0 19 20 34 12 34 -18 0 -26 24 -33 110 -32 45 1 45 1
48 39 2 20 6 37 10 37 14 0 52 -31 52 -43 0 -7 19 -21 43 -31 23 -11 50 -27
60 -35 22 -18 21 -14 -2 40 -23 52 -54 83 -96 98 l-30 11 35 -30 35 -30 -40
17 c-37 15 -123 40 -170 48 -11 2 -33 0 -48 -5z m109 -61 c10 -17 -13 -36 -27
-22 -12 12 -4 33 11 33 5 0 12 -5 16 -11z"/>
<path d="M3482 2908 c-7 -7 -12 -23 -12 -36 0 -24 1 -24 30 8 17 18 30 34 30
36 0 9 -37 3 -48 -8z"/>
<path d="M1860 2406 c0 -19 4 -38 10 -41 6 -4 9 10 7 34 -2 50 -17 55 -17 7z"/>
<path d="M3026 2356 c4 -12 10 -23 14 -26 3 -3 17 -25 31 -50 13 -25 30 -51
37 -59 7 -8 20 -24 29 -37 19 -30 37 -31 27 -2 -6 21 -42 77 -55 88 -4 3 -19
28 -34 56 -27 51 -62 72 -49 30z"/>
<path d="M1831 2269 c-12 -34 -7 -56 6 -23 3 10 11 22 17 26 8 5 7 11 0 18 -9
9 -14 3 -23 -21z"/>
<path d="M2196 2108 c-3 -13 -6 -26 -6 -29 0 -13 138 -119 154 -119 10 0 14
-5 10 -12 -4 -6 -3 -9 2 -5 8 5 48 -3 164 -33 46 -12 63 -12 55 0 -3 6 -17 10
-30 10 -12 0 -25 7 -29 15 -3 8 -16 15 -29 15 -14 0 -30 7 -37 15 -9 11 -16
12 -31 2 -24 -15 -41 5 -37 43 3 24 6 25 68 25 36 0 94 -4 130 -8 101 -11 59
10 -110 55 -19 5 -69 11 -110 14 -41 3 -88 12 -104 20 -40 19 -53 18 -60 -8z"/>
<path d="M2718 2023 c6 -2 18 -2 25 0 6 3 1 5 -13 5 -14 0 -19 -2 -12 -5z"/>
<path d="M2786 2019 c2 -4 24 -10 49 -13 39 -6 45 -10 45 -31 0 -13 -4 -27
-10 -30 -5 -3 -10 -14 -9 -23 0 -11 3 -12 6 -4 2 6 10 12 16 12 6 0 32 18 58
40 26 22 52 40 58 40 6 0 11 3 11 8 0 4 -51 7 -114 7 -63 0 -113 -2 -110 -6z"/>
<path d="M2368 1900 c3 -18 12 -32 24 -36 33 -10 40 17 12 43 -33 31 -41 29
-36 -7z"/>
<path d="M2763 1915 c-15 -8 -19 -15 -13 -26 8 -12 13 -11 31 7 24 25 14 36
-18 19z"/>
<path d="M2820 1919 c0 -5 5 -7 10 -4 6 3 10 8 10 11 0 2 -4 4 -10 4 -5 0 -10
-5 -10 -11z"/>
<path d="M2795 1220 c-3 -5 -1 -10 4 -10 6 0 11 5 11 10 0 6 -2 10 -4 10 -3 0
-8 -4 -11 -10z"/>
<path d="M2801 993 c-9 -23 -9 -25 2 -13 7 8 19 21 27 28 12 10 12 12 -1 12
-9 0 -21 -12 -28 -27z"/>
</g>
</svg>
